# xmcd CD database file
# Copyright (C) 1997 Ti Kan
# 
# Track frame offsets:
#     157
#     18132
#     32915
#     49365
#     67305
#     89080
#     105425
#     125925
#     143910
# 
# Disc length: 2188 seconds
# 
# Revision: 1
# Processed by: cddbd v1.4b41PL1 Copyright (c) Steve Scherf et al.
# Submitted via: DiscPlay 4.0.4
# 
DISCID=88088a09
DTITLE=Joe "Guitar" Hughes - If You Want To See The Blues
DYEAR=1900
DGENRE=
TTITLE0=Voo Doo Woman
TTITLE1=Running From Your Own Shadow
TTITLE2=Mother-In-Law Blues
TTITLE3=Stuff Like That
TTITLE4=I Need Love So Bad
TTITLE5=Learn From Each Mistake
TTITLE6=If You Want To See The Blues
TTITLE7=Movin' On
TTITLE8=Part Of Loving You
EXTD=
EXTT0=
EXTT1=
EXTT2=
EXTT3=
EXTT4=
EXTT5=
EXTT6=
EXTT7=
EXTT8=
PLAYORDER=
